<svg width="24" height="24" viewBox="0 0 24 24" fill="none" xmlns="http://www.w3.org/2000/svg">
<path d="M11.9999 14L17.4999 18.5M11.9999 14L6.4999 18.5M11.9999 14V7M10.3909 3.69C11.1049 2.563 11.4619 2 11.9999 2C12.5379 2 12.8949 2.563 13.6089 3.69L14.1209 4.5C14.8259 5.612 15.1779 6.168 14.9109 6.584C14.6419 7 13.9319 7 12.5119 7H11.4859C10.0659 7 9.3559 7 9.0889 6.584C8.8209 6.168 9.1729 5.612 9.8779 4.5L10.3909 3.69ZM21.2319 19.14C21.8559 20.35 22.1679 20.955 21.9089 21.425C21.6489 21.895 20.9939 21.915 19.6819 21.954L18.7399 21.982C17.4459 22.02 16.7989 22.04 16.5699 21.59C16.3409 21.14 16.6839 20.519 17.3689 19.277L17.8629 18.381C18.5469 17.139 18.8889 16.518 19.3759 16.501C19.8619 16.482 20.1689 17.079 20.7849 18.272L21.2319 19.14ZM2.7679 19.14C2.1439 20.35 1.8319 20.955 2.0909 21.425C2.3509 21.895 3.0059 21.915 4.3179 21.954L5.2599 21.982C6.5539 22.02 7.2009 22.04 7.4299 21.59C7.6589 21.14 7.3159 20.519 6.6309 19.277L6.1369 18.381C5.4529 17.139 5.1109 16.518 4.6239 16.501C4.1379 16.482 3.8309 17.079 3.2149 18.272L2.7679 19.14Z" stroke="#134205" stroke-width="1.5"/>
</svg>
