<svg width="36" height="36" viewBox="0 0 36 36" fill="none" xmlns="http://www.w3.org/2000/svg">
<g clip-path="url(#clip0_427_1974)">
<g opacity="0.1" filter="url(#filter0_f_427_1974)">
<path d="M0 18C0 8.05887 8.05887 0 18 0C27.9411 0 36 8.05887 36 18C36 27.9411 27.9411 36 18 36C8.05887 36 0 27.9411 0 18Z" fill="#134205"/>
</g>
<path d="M0 18C0 8.05887 8.05887 0 18 0C27.9411 0 36 8.05887 36 18C36 27.9411 27.9411 36 18 36C8.05887 36 0 27.9411 0 18Z" fill="#134205"/>
<g clip-path="url(#clip1_427_1974)">
<path d="M18.5578 10.7352C18.5355 10.7058 18.5197 10.672 18.5112 10.6361C18.5028 10.6002 18.502 10.5629 18.5088 10.5267C18.5326 10.3693 18.673 10.2659 18.8303 10.2897C20.6899 10.5749 22.3266 11.5625 23.4449 13.0792C23.8555 13.6361 24.1846 14.2531 24.4121 14.9029C24.4363 14.9728 24.4319 15.0494 24.4 15.1161C24.368 15.1828 24.3112 15.2343 24.2416 15.2593C24.0926 15.3132 23.9313 15.2365 23.8852 15.0888C23.6694 14.4903 23.3686 13.9259 22.9921 13.413C21.964 12.0186 20.4527 11.1062 18.7413 10.8514C18.6627 10.8396 18.6012 10.794 18.5578 10.7352Z" fill="#FAF7F2"/>
<path d="M13.4909 13.3036C13.3451 13.106 13.3302 12.8773 13.457 12.7838C16.1916 10.7676 20.9797 12.5982 24.1233 16.8619C24.269 17.0595 24.2839 17.2882 24.1571 17.3817C24.0304 17.4752 23.8163 17.3933 23.6705 17.1957C20.8132 13.3203 16.463 11.6571 13.9775 13.4897C13.8507 13.5832 13.6366 13.5013 13.4909 13.3036ZM23.8011 27.2874C23.6743 27.3809 23.6892 27.6096 23.835 27.8073C24.6104 28.8591 25.5584 29.7183 26.5776 30.2853C27.3702 30.7308 28.171 30.9809 28.9123 31.0147C29.6537 31.0484 30.3137 30.8648 30.8368 30.4792C30.9591 30.3891 30.9487 30.157 30.803 29.9594C30.6572 29.7617 30.4431 29.6799 30.3164 29.7733C29.4018 30.4476 28.0309 30.3797 26.6476 29.6126C25.774 29.1197 24.95 28.3728 24.2877 27.4735C24.142 27.2758 23.9279 27.194 23.8011 27.2874Z" fill="#FAF7F2"/>
<path d="M11.006 13.8079L11.5911 14.4176H16.3128C20.6158 14.4176 24.0492 18.0821 24.0492 22.5253V22.9461C24.0492 23.7428 23.4267 24.4487 22.5879 24.4487H17.7407C13.437 24.4487 10.0043 20.7842 10.0043 16.341V12.5009C10.0043 12.2271 10.2313 12 10.5052 12C10.779 12 11.006 12.2271 11.006 12.5009V13.8079ZM17.7407 23.113H22.5879C22.6026 23.1125 22.6169 23.109 22.6301 23.1027C22.6434 23.0963 22.6551 23.0874 22.6647 23.0763C22.6971 23.0408 22.7146 22.9941 22.7135 22.9461V22.5253C22.7135 18.754 19.815 15.7533 16.3128 15.7533H11.4388C11.5207 15.8303 11.6125 15.8971 11.714 15.9537L19.6614 20.2947C19.9018 20.4283 19.9953 20.7288 19.8618 20.9759C19.7749 21.1429 19.6013 21.2364 19.4277 21.2364C19.3475 21.2364 19.2674 21.2163 19.1872 21.1763L11.3613 16.902C11.6318 20.4056 14.4148 23.113 17.7407 23.113Z" fill="#FAF7F2"/>
</g>
</g>
<defs>
<filter id="filter0_f_427_1974" x="-22.5" y="-22.5" width="81" height="81" filterUnits="userSpaceOnUse" color-interpolation-filters="sRGB">
<feFlood flood-opacity="0" result="BackgroundImageFix"/>
<feBlend mode="normal" in="SourceGraphic" in2="BackgroundImageFix" result="shape"/>
<feGaussianBlur stdDeviation="11.25" result="effect1_foregroundBlur_427_1974"/>
</filter>
<clipPath id="clip0_427_1974">
<rect width="36" height="36" fill="white"/>
</clipPath>
<clipPath id="clip1_427_1974">
<rect width="18" height="18" fill="white" transform="translate(9 9)"/>
</clipPath>
</defs>
</svg>
