<svg width="42" height="42" viewBox="0 0 42 42" fill="none" xmlns="http://www.w3.org/2000/svg">
<path d="M23.494 3.88006C23.8333 3.6114 24.26 3.47795 24.6918 3.50547C25.1237 3.533 25.53 3.71954 25.8324 4.02909C26.1348 4.33864 26.3117 4.74925 26.3291 5.18162C26.3465 5.614 26.2031 6.03748 25.9265 6.37031L25.8058 6.50156L22.7503 9.48531V18.0008L30.361 13.7063L31.481 9.62881L31.537 9.45906C31.6985 9.03972 32.0151 8.69855 32.4212 8.50624C32.8273 8.31392 33.2918 8.2852 33.7186 8.42601C34.1453 8.56683 34.5015 8.86639 34.7134 9.26265C34.9253 9.6589 34.9766 10.1215 34.8568 10.5546L34.0133 13.6276L37.193 14.4623L37.3645 14.5148C37.7731 14.6647 38.1111 14.9614 38.3127 15.3471C38.5143 15.7328 38.565 16.1798 38.4548 16.6008C38.3446 17.0218 38.0815 17.3866 37.7169 17.6241C37.3522 17.8616 36.9121 17.9548 36.4825 17.8853L36.3075 17.8468L32.0988 16.7443L24.5615 21.0003L32.0988 25.2528L36.3075 24.1503L36.4825 24.1153C36.9245 24.0497 37.3747 24.1556 37.7411 24.4113C38.1075 24.6669 38.3622 25.0531 38.453 25.4905C38.5439 25.9279 38.464 26.3835 38.2297 26.764C37.9954 27.1444 37.6245 27.4208 37.193 27.5366L34.0133 28.3696L34.8568 31.4443L34.8935 31.6193C34.9632 32.0458 34.8726 32.483 34.6391 32.8466C34.4057 33.2103 34.046 33.4747 33.6292 33.589C33.2125 33.7033 32.7682 33.6594 32.3819 33.4657C31.9956 33.2719 31.6947 32.9422 31.537 32.5398L31.481 32.3683L30.361 28.2908L22.7503 23.9963V32.5118L25.8058 35.4991L25.9283 35.6303C26.2065 35.9631 26.3512 36.3873 26.3344 36.8208C26.3176 37.2542 26.1404 37.6659 25.8371 37.9761C25.5339 38.2863 25.1263 38.4728 24.6934 38.4995C24.2605 38.5262 23.833 38.3911 23.494 38.1206L23.3593 38.0016L21.0003 35.6968L18.6413 38.0016C18.308 38.3189 17.8633 38.4921 17.4032 38.4839C16.9431 38.4756 16.5048 38.2866 16.1832 37.9575C15.8615 37.6285 15.6824 37.186 15.6846 36.7259C15.6867 36.2658 15.87 35.825 16.1948 35.4991L19.2503 32.5118V23.9963L11.6378 28.2908L10.5178 32.3683L10.4653 32.5398C10.3073 32.964 9.99116 33.3106 9.58314 33.5066C9.17512 33.7026 8.70701 33.7329 8.27712 33.5912C7.84722 33.4494 7.489 33.1465 7.27767 32.7462C7.06634 32.3459 7.01835 31.8793 7.14378 31.4443L7.98728 28.3696L4.80753 27.5366L4.63603 27.4841C4.22747 27.3342 3.88942 27.0374 3.68784 26.6518C3.48626 26.2661 3.43561 25.8191 3.54578 25.3981C3.65595 24.9771 3.91903 24.6122 4.28369 24.3747C4.64835 24.1372 5.08842 24.0441 5.51803 24.1136L5.69303 24.1521L9.90003 25.2528L17.4373 21.0003L9.90003 16.7478L5.69303 17.8503L5.51803 17.8853C5.07611 17.9509 4.62583 17.8451 4.25946 17.5894C3.89309 17.3337 3.63838 16.9476 3.54754 16.5101C3.4567 16.0727 3.5366 15.6171 3.77086 15.2367C4.00513 14.8562 4.37602 14.5798 4.80753 14.4641L7.98728 13.6293L7.14378 10.5563L7.10703 10.3813C7.03522 9.95376 7.12467 9.51477 7.35805 9.1494C7.59143 8.78403 7.95212 8.5183 8.37024 8.40369C8.78836 8.28908 9.23414 8.33376 9.6212 8.52906C10.0083 8.72437 10.3091 9.0564 10.4653 9.46081L10.5178 9.63231L11.6378 13.7081L19.2503 18.0026V9.48706L16.1948 6.50156L16.0723 6.37031C15.7941 6.03754 15.6493 5.6133 15.6662 5.17987C15.683 4.74643 15.8602 4.3347 16.1634 4.02452C16.4666 3.71434 16.8742 3.52781 17.3072 3.50112C17.7401 3.47443 18.1675 3.60947 18.5065 3.88006L18.6413 3.99906L21.0003 6.30381L23.3593 3.99906L23.494 3.88006Z" fill="#134205"/>
</svg>
