<svg width="136" height="45" viewBox="0 0 136 45" fill="none" xmlns="http://www.w3.org/2000/svg">
<path d="M14 32.0001C34.9212 32.0001 36.6047 14.2026 36.7395 5.74485C36.7407 5.51478 36.6958 5.2868 36.6074 5.07441C36.5189 4.86201 36.3888 4.66951 36.2246 4.5083C36.0605 4.34709 35.8657 4.22044 35.6517 4.13586C35.4378 4.05127 35.209 4.01047 34.979 4.01585C5.25 4.56185 5.25 18.9749 5.25 32.0001V39.0001" stroke="#134205" stroke-width="3.5" stroke-linecap="round" stroke-linejoin="round"/>
<path d="M5.25 32C5.25 32 5.25 21.5 19.25 19.75" stroke="#134205" stroke-width="3.5" stroke-linecap="round" stroke-linejoin="round"/>
<path d="M61.166 12.58V37H56.837V26.011H48.549V37H44.22V12.58H48.549V23.273H56.837V12.58H61.166ZM75.8596 35.298C75.391 36.1613 74.7003 36.7903 73.7876 37.185C72.8996 37.6043 71.8883 37.814 70.7536 37.814C69.0516 37.814 67.621 37.296 66.4616 36.26C65.327 35.224 64.7596 33.8797 64.7596 32.227C64.7596 28.231 68.324 26.233 75.4526 26.233V23.014C75.4526 21.7807 75.2676 20.868 74.8976 20.276C74.5276 19.6593 73.8246 19.351 72.7886 19.351C71.9253 19.351 71.21 19.5853 70.6426 20.054C70.0753 20.498 69.7916 21.127 69.7916 21.941C69.7916 22.459 69.8903 23.014 70.0876 23.606C69.7423 23.8773 69.249 24.013 68.6076 24.013C67.7196 24.013 67.0166 23.791 66.4986 23.347C65.9806 22.903 65.7216 22.2617 65.7216 21.423C65.7216 20.239 66.3876 19.277 67.7196 18.537C69.0516 17.7723 70.8276 17.39 73.0476 17.39C74.6756 17.39 75.9583 17.6367 76.8956 18.13C77.833 18.5987 78.499 19.3387 78.8936 20.35C79.313 21.3367 79.5226 22.6687 79.5226 24.346V33.966C79.5226 35.1747 79.905 35.9887 80.6696 36.408C80.4723 36.778 80.1763 37.0617 79.7816 37.259C79.4116 37.4563 78.98 37.555 78.4866 37.555C77.7713 37.555 77.1793 37.3577 76.7106 36.963C76.242 36.5437 75.9583 35.9887 75.8596 35.298ZM72.1966 35.335C73.282 35.335 74.096 34.928 74.6386 34.114C75.1813 33.2753 75.4526 32.2393 75.4526 31.006V28.083C71.284 28.083 69.1996 29.415 69.1996 32.079C69.1996 33.0657 69.4586 33.855 69.9766 34.447C70.5193 35.039 71.2593 35.335 72.1966 35.335ZM97.5416 18.13L89.1426 44.141L85.0726 43.66L88.7356 35.224H86.8856L82.1866 18.13H86.4046L89.9196 32.745L93.6936 18.13H97.5416ZM110.005 35.298C109.536 36.1613 108.846 36.7903 107.933 37.185C107.045 37.6043 106.034 37.814 104.899 37.814C103.197 37.814 101.766 37.296 100.607 36.26C99.4725 35.224 98.9051 33.8797 98.9051 32.227C98.9051 28.231 102.469 26.233 109.598 26.233V23.014C109.598 21.7807 109.413 20.868 109.043 20.276C108.673 19.6593 107.97 19.351 106.934 19.351C106.071 19.351 105.355 19.5853 104.788 20.054C104.221 20.498 103.937 21.127 103.937 21.941C103.937 22.459 104.036 23.014 104.233 23.606C103.888 23.8773 103.394 24.013 102.753 24.013C101.865 24.013 101.162 23.791 100.644 23.347C100.126 22.903 99.8671 22.2617 99.8671 21.423C99.8671 20.239 100.533 19.277 101.865 18.537C103.197 17.7723 104.973 17.39 107.193 17.39C108.821 17.39 110.104 17.6367 111.041 18.13C111.978 18.5987 112.644 19.3387 113.039 20.35C113.458 21.3367 113.668 22.6687 113.668 24.346V33.966C113.668 35.1747 114.05 35.9887 114.815 36.408C114.618 36.778 114.322 37.0617 113.927 37.259C113.557 37.4563 113.125 37.555 112.632 37.555C111.917 37.555 111.325 37.3577 110.856 36.963C110.387 36.5437 110.104 35.9887 110.005 35.298ZM106.342 35.335C107.427 35.335 108.241 34.928 108.784 34.114C109.327 33.2753 109.598 32.2393 109.598 31.006V28.083C105.429 28.083 103.345 29.415 103.345 32.079C103.345 33.0657 103.604 33.855 104.122 34.447C104.665 35.039 105.405 35.335 106.342 35.335ZM116.221 19.795L116.184 18.685C117.294 18.241 118.342 17.649 119.329 16.909C120.34 16.169 121.191 15.355 121.882 14.467H123.029V18.13H126.433V19.795H122.955V33.263C122.955 34.003 123.091 34.558 123.362 34.928C123.633 35.298 124.065 35.5323 124.657 35.631C124.534 36.1983 124.201 36.6547 123.658 37C123.14 37.37 122.536 37.555 121.845 37.555C119.847 37.555 118.848 36.4203 118.848 34.151V19.795H116.221ZM131.064 33.078C131.878 33.078 132.532 33.2753 133.025 33.67C133.518 34.0647 133.765 34.632 133.765 35.372C133.765 36.1367 133.494 36.7163 132.951 37.111C132.433 37.5303 131.767 37.74 130.953 37.74C130.139 37.74 129.485 37.5427 128.992 37.148C128.499 36.7533 128.252 36.186 128.252 35.446C128.252 34.6813 128.511 34.1017 129.029 33.707C129.572 33.2877 130.25 33.078 131.064 33.078Z" fill="#134205"/>
</svg>
