<svg width="105" height="70" viewBox="0 0 105 70" fill="none" xmlns="http://www.w3.org/2000/svg">
<path fill-rule="evenodd" clip-rule="evenodd" d="M26.2715 28.2099V21.2049C28.4737 24.4538 31.204 28.1454 34.8741 28.0803C37.4324 28.0265 39.9255 25.5113 40.0444 23.137C40.2279 19.4777 35.6084 18.5283 32.8129 17.0927C29.2832 15.2681 26.1962 11.9546 26.2721 8.30662C26.3695 3.77319 30.9137 -0.296014 37.206 0.017048C39.5157 0.13594 41.5882 0.880356 43.2073 2.16487V8.30662C41.7286 5.67307 39.0515 3.66506 36.2023 3.26596C34.2486 2.99592 31.4854 4.14003 31.3558 6.65527C31.2046 9.40771 34.9608 11.0913 37.6487 12.1601C41.6534 13.7571 46.0786 15.8619 45.8516 21.7987C45.679 26.5156 41.8254 30.7897 35.0145 30.9086C31.4526 30.9731 29.1859 29.7753 26.2715 28.2099ZM81.0705 30.5955H74.584C75.8255 29.6133 76.6458 28.5666 77.2176 27.2714L88.6586 1.21553C89.0577 0.308602 89.8673 0.319356 90.2879 1.21553L102.442 27.5737C102.95 28.6748 103.921 29.8619 105 30.5961H95.1457C96.0419 29.6355 96.2683 28.9018 95.8573 27.9841L93.4615 22.5766H82.5486L80.5627 27.3687C80.1426 28.3719 80.5854 29.9157 81.0705 30.5955ZM48.0532 1.21553H62.6022C72.4248 1.21553 78.0378 8.1232 77.9727 15.0094C77.898 23.5475 69.9747 30.5955 62.7008 30.5955H48.1398C49.2624 29.4945 49.7697 28.5122 49.7697 27.2821V3.97871C49.7691 2.88838 49.2403 2.13261 48.0532 1.21553ZM0 1.21553H8.05238C7.34023 2.07884 7.08093 2.56456 7.08093 3.78395V22.263C7.08093 26.1595 10.5133 27.7893 13.9456 27.4655C17.3779 27.1525 20.8103 24.8965 20.8103 21.0322V3.34184C20.8103 2.54305 20.4542 1.8524 19.7199 1.21553H24.8472C23.8973 1.70125 23.6057 2.40265 23.6057 3.16918V21.6476C23.6057 27.9943 17.9288 31.0813 12.2405 31.049C6.56295 31.006 0.885416 27.8324 0.885416 21.6476V3.25521C0.884818 2.52154 0.658386 1.8524 0 1.21553ZM34.7552 38.1293C36.3421 38.6264 36.3958 39.4784 34.7552 39.3278C27.4156 38.6694 9.18514 37.0504 2.60128 38.216C2.02893 38.3128 1.05808 38.0105 1.05808 37.4387V35.2156C1.05808 34.4383 1.92199 33.6067 2.68791 33.5744C9.86563 33.3587 27.8476 35.9708 34.7552 38.1293ZM24.5228 40.3638C26.1849 40.4934 26.1741 41.4864 24.5228 41.5623C17.1294 41.8962 9.00172 43.3863 2.60128 44.9181C2.04028 45.0478 1.05808 44.7246 1.05808 44.1409V41.9076C1.05808 41.1411 1.92199 40.353 2.68791 40.2772C9.86563 39.5327 17.2698 39.7592 24.5228 40.3638Z" fill="#134205"/>
<path fill-rule="evenodd" clip-rule="evenodd" d="M103.499 33.2183V38.0426C68.3663 39.3271 39.7092 39.1443 2.73027 52.1071C1.46726 52.5492 0.949875 51.6961 2.1364 51.0813C32.3266 35.5489 73.5253 34.0493 103.499 33.2183Z" fill="#134205"/>
<path fill-rule="evenodd" clip-rule="evenodd" d="M100.575 69.9815H3.60502C1.32756 69.9815 1.11188 68.0057 1.11188 66.6137V57.2332C1.11188 55.5717 1.80253 54.7836 4.78199 53.8666C37.9618 43.6341 70.8607 40.6552 103.652 40.9677V66.916C103.651 68.5452 102.788 69.9815 100.575 69.9815Z" fill="#134205"/>
<path fill-rule="evenodd" clip-rule="evenodd" d="M91.9404 19.1543L87.827 9.87116L83.974 19.1543H91.9404ZM55.2847 3.94629H60.7889C67.5467 3.94629 70.9575 9.77498 70.9784 15.6037C70.9903 21.4324 67.6225 27.2604 60.7889 27.2604H55.2847V3.94629Z" fill="#E8EBE5"/>
</svg>
