<svg width="136" height="64" viewBox="0 0 136 64" fill="none" xmlns="http://www.w3.org/2000/svg">
<path d="M14 32.0003C34.9212 32.0003 36.6047 14.2028 36.7395 5.7451C36.7407 5.51503 36.6958 5.28705 36.6074 5.07465C36.5189 4.86225 36.3888 4.66975 36.2246 4.50854C36.0605 4.34733 35.8657 4.22069 35.6517 4.1361C35.4378 4.05152 35.209 4.01071 34.979 4.0161C5.25 4.5621 5.25 18.9751 5.25 32.0003V39.0003" stroke="#134205" stroke-width="3.5" stroke-linecap="round" stroke-linejoin="round"/>
<path d="M5.25 32C5.25 32 5.25 21.5 19.25 19.75" stroke="#134205" stroke-width="3.5" stroke-linecap="round" stroke-linejoin="round"/>
<path d="M61.166 12.58V37H56.837V26.011H48.549V37H44.22V12.58H48.549V23.273H56.837V12.58H61.166ZM75.8596 35.298C75.391 36.1613 74.7003 36.7903 73.7876 37.185C72.8996 37.6043 71.8883 37.814 70.7536 37.814C69.0516 37.814 67.621 37.296 66.4616 36.26C65.327 35.224 64.7596 33.8797 64.7596 32.227C64.7596 28.231 68.324 26.233 75.4526 26.233V23.014C75.4526 21.7807 75.2676 20.868 74.8976 20.276C74.5276 19.6593 73.8246 19.351 72.7886 19.351C71.9253 19.351 71.21 19.5853 70.6426 20.054C70.0753 20.498 69.7916 21.127 69.7916 21.941C69.7916 22.459 69.8903 23.014 70.0876 23.606C69.7423 23.8773 69.249 24.013 68.6076 24.013C67.7196 24.013 67.0166 23.791 66.4986 23.347C65.9806 22.903 65.7216 22.2617 65.7216 21.423C65.7216 20.239 66.3876 19.277 67.7196 18.537C69.0516 17.7723 70.8276 17.39 73.0476 17.39C74.6756 17.39 75.9583 17.6367 76.8956 18.13C77.833 18.5987 78.499 19.3387 78.8936 20.35C79.313 21.3367 79.5226 22.6687 79.5226 24.346V33.966C79.5226 35.1747 79.905 35.9887 80.6696 36.408C80.4723 36.778 80.1763 37.0617 79.7816 37.259C79.4116 37.4563 78.98 37.555 78.4866 37.555C77.7713 37.555 77.1793 37.3577 76.7106 36.963C76.242 36.5437 75.9583 35.9887 75.8596 35.298ZM72.1966 35.335C73.282 35.335 74.096 34.928 74.6386 34.114C75.1813 33.2753 75.4526 32.2393 75.4526 31.006V28.083C71.284 28.083 69.1996 29.415 69.1996 32.079C69.1996 33.0657 69.4586 33.855 69.9766 34.447C70.5193 35.039 71.2593 35.335 72.1966 35.335ZM97.5416 18.13L89.1426 44.141L85.0726 43.66L88.7356 35.224H86.8856L82.1866 18.13H86.4046L89.9196 32.745L93.6936 18.13H97.5416ZM110.005 35.298C109.536 36.1613 108.846 36.7903 107.933 37.185C107.045 37.6043 106.034 37.814 104.899 37.814C103.197 37.814 101.766 37.296 100.607 36.26C99.4725 35.224 98.9051 33.8797 98.9051 32.227C98.9051 28.231 102.469 26.233 109.598 26.233V23.014C109.598 21.7807 109.413 20.868 109.043 20.276C108.673 19.6593 107.97 19.351 106.934 19.351C106.071 19.351 105.355 19.5853 104.788 20.054C104.221 20.498 103.937 21.127 103.937 21.941C103.937 22.459 104.036 23.014 104.233 23.606C103.888 23.8773 103.394 24.013 102.753 24.013C101.865 24.013 101.162 23.791 100.644 23.347C100.126 22.903 99.8671 22.2617 99.8671 21.423C99.8671 20.239 100.533 19.277 101.865 18.537C103.197 17.7723 104.973 17.39 107.193 17.39C108.821 17.39 110.104 17.6367 111.041 18.13C111.978 18.5987 112.644 19.3387 113.039 20.35C113.458 21.3367 113.668 22.6687 113.668 24.346V33.966C113.668 35.1747 114.05 35.9887 114.815 36.408C114.618 36.778 114.322 37.0617 113.927 37.259C113.557 37.4563 113.125 37.555 112.632 37.555C111.917 37.555 111.325 37.3577 110.856 36.963C110.387 36.5437 110.104 35.9887 110.005 35.298ZM106.342 35.335C107.427 35.335 108.241 34.928 108.784 34.114C109.327 33.2753 109.598 32.2393 109.598 31.006V28.083C105.429 28.083 103.345 29.415 103.345 32.079C103.345 33.0657 103.604 33.855 104.122 34.447C104.665 35.039 105.405 35.335 106.342 35.335ZM116.221 19.795L116.184 18.685C117.294 18.241 118.342 17.649 119.329 16.909C120.34 16.169 121.191 15.355 121.882 14.467H123.029V18.13H126.433V19.795H122.955V33.263C122.955 34.003 123.091 34.558 123.362 34.928C123.633 35.298 124.065 35.5323 124.657 35.631C124.534 36.1983 124.201 36.6547 123.658 37C123.14 37.37 122.536 37.555 121.845 37.555C119.847 37.555 118.848 36.4203 118.848 34.151V19.795H116.221ZM131.064 33.078C131.878 33.078 132.532 33.2753 133.025 33.67C133.518 34.0647 133.765 34.632 133.765 35.372C133.765 36.1367 133.494 36.7163 132.951 37.111C132.433 37.5303 131.767 37.74 130.953 37.74C130.139 37.74 129.485 37.5427 128.992 37.148C128.499 36.7533 128.252 36.186 128.252 35.446C128.252 34.6813 128.511 34.1017 129.029 33.707C129.572 33.2877 130.25 33.078 131.064 33.078Z" fill="#134205"/>
<path d="M13.5571 50.035C15.0191 50.035 16.1411 50.4997 16.9231 51.429C17.7051 52.347 18.0961 53.6617 18.0961 55.373C18.0961 57.2203 17.6824 58.637 16.8551 59.623C16.0278 60.609 14.8491 61.102 13.3191 61.102C11.8798 61.102 10.7691 60.6317 9.98711 59.691C9.20511 58.739 8.81411 57.3847 8.81411 55.628C8.81411 53.8373 9.22211 52.4603 10.0381 51.497C10.8654 50.5223 12.0384 50.035 13.5571 50.035ZM13.5061 50.783C12.2594 50.783 11.3131 51.1853 10.6671 51.99C10.0211 52.7947 9.69811 53.979 9.69811 55.543C9.69811 57.141 10.0098 58.348 10.6331 59.164C11.2564 59.98 12.1744 60.388 13.3871 60.388C14.6338 60.388 15.5801 59.9743 16.2261 59.147C16.8721 58.3197 17.1951 57.107 17.1951 55.509C17.1951 53.945 16.8834 52.7663 16.2601 51.973C15.6368 51.1797 14.7188 50.783 13.5061 50.783ZM25.9647 56.546C26.8147 57.9173 27.795 59.334 28.9057 60.796V60.915C28.7244 61.0057 28.4694 61.0793 28.1407 61.136L28.0047 61.068C26.9054 59.4927 25.976 58.0533 25.2167 56.75H23.0747V57.651L23.1087 61H22.2247L22.2757 57.702L22.2247 50.137L25.1147 50.12C26.146 50.12 26.9394 50.3807 27.4947 50.902C28.05 51.4233 28.3277 52.177 28.3277 53.163C28.3277 53.9563 28.1237 54.6477 27.7157 55.237C27.3077 55.815 26.724 56.2513 25.9647 56.546ZM23.0917 55.968L25.3017 56.002C25.993 55.8093 26.52 55.4807 26.8827 55.016C27.2454 54.54 27.4267 53.9393 27.4267 53.214C27.4267 52.4547 27.217 51.8823 26.7977 51.497C26.3897 51.1003 25.7947 50.8907 25.0127 50.868L23.1257 50.902L23.0917 55.968ZM37.0882 50.052C38.1535 50.052 39.1962 50.3353 40.2162 50.902L40.0122 51.718L39.8762 51.735C38.8562 51.123 37.8928 50.817 36.9862 50.817C35.6262 50.817 34.5892 51.2307 33.8752 52.058C33.1725 52.874 32.8212 54.0867 32.8212 55.696C32.8212 57.2373 33.1385 58.3933 33.7732 59.164C34.4078 59.9347 35.3485 60.32 36.5952 60.32C37.0258 60.32 37.4282 60.2917 37.8022 60.235C38.1875 60.167 38.6805 60.048 39.2812 59.878L39.2982 58.297L39.2812 56.733L40.1312 56.665L40.1142 58.195L40.1482 60.49C39.3888 60.7053 38.7428 60.8583 38.2102 60.949C37.6888 61.0397 37.1448 61.0907 36.5782 61.102C35.0482 61.102 33.8865 60.6373 33.0932 59.708C32.3112 58.7787 31.9202 57.4527 31.9202 55.73C31.9202 53.9053 32.3678 52.5057 33.2632 51.531C34.1585 50.545 35.4335 50.052 37.0882 50.052ZM52.4127 61H51.4947L51.2567 60.082L50.4407 57.736L47.8567 57.702L45.5277 57.736L44.6437 60.048L44.3887 61H43.4707L47.6187 50.137H48.6217L52.4127 61ZM50.1687 56.954L48.1457 51.157H48.0437L45.8337 56.954L47.9587 56.971L50.1687 56.954ZM64.2852 57.906V61H63.3842L57.1622 51.616H57.0772L57.0602 57.515L57.0772 61H56.2612L56.2952 57.77L56.2782 50.137H57.1962L63.4012 59.521H63.4862L63.5032 50.188L64.3362 50.12L64.2852 57.906ZM70.3161 57.651L70.3501 61H69.4661L69.5171 57.702L69.4661 50.137H70.3671L70.3161 57.651ZM78.8561 50.052C79.4114 50.052 79.9441 50.1313 80.4541 50.29C80.9641 50.4373 81.4231 50.6583 81.8311 50.953L81.6441 51.752L81.5081 51.769C80.7148 51.1343 79.8194 50.817 78.8221 50.817C77.6094 50.817 76.6801 51.225 76.0341 52.041C75.3994 52.857 75.0821 54.0357 75.0821 55.577C75.0821 57.1183 75.3938 58.297 76.0171 59.113C76.6404 59.9177 77.5358 60.32 78.7031 60.32C79.2244 60.32 79.7401 60.2293 80.2501 60.048C80.7601 59.8553 81.2361 59.589 81.6781 59.249L81.8141 59.3L81.7461 60.133C80.7714 60.779 79.7401 61.102 78.6521 61.102C77.2241 61.102 76.1191 60.6317 75.3371 59.691C74.5664 58.739 74.1811 57.3847 74.1811 55.628C74.1811 53.8487 74.5834 52.4773 75.3881 51.514C76.2041 50.5393 77.3601 50.052 78.8561 50.052ZM93.2608 50.12C94.2921 50.12 95.0855 50.392 95.6408 50.936C96.1961 51.4687 96.4738 52.2337 96.4738 53.231C96.4738 54.4097 96.1338 55.3333 95.4538 56.002C94.7851 56.6593 93.8388 56.988 92.6148 56.988H91.2208V57.651L91.2548 61H90.3708L90.4218 57.702L90.3708 50.137L93.2608 50.12ZM93.1248 56.24C93.9181 56.138 94.5245 55.832 94.9438 55.322C95.3631 54.812 95.5728 54.1377 95.5728 53.299C95.5728 52.517 95.3631 51.922 94.9438 51.514C94.5358 51.106 93.9408 50.8907 93.1588 50.868L91.2718 50.902L91.2378 56.206L93.1248 56.24ZM104.361 56.546C105.211 57.9173 106.191 59.334 107.302 60.796V60.915C107.12 61.0057 106.865 61.0793 106.537 61.136L106.401 61.068C105.301 59.4927 104.372 58.0533 103.613 56.75H101.471V57.651L101.505 61H100.621L100.672 57.702L100.621 50.137L103.511 50.12C104.542 50.12 105.335 50.3807 105.891 50.902C106.446 51.4233 106.724 52.177 106.724 53.163C106.724 53.9563 106.52 54.6477 106.112 55.237C105.704 55.815 105.12 56.2513 104.361 56.546ZM101.488 55.968L103.698 56.002C104.389 55.8093 104.916 55.4807 105.279 55.016C105.641 54.54 105.823 53.9393 105.823 53.214C105.823 52.4547 105.613 51.8823 105.194 51.497C104.786 51.1003 104.191 50.8907 103.409 50.868L101.522 50.902L101.488 55.968ZM115.059 50.035C116.521 50.035 117.643 50.4997 118.425 51.429C119.207 52.347 119.598 53.6617 119.598 55.373C119.598 57.2203 119.184 58.637 118.357 59.623C117.53 60.609 116.351 61.102 114.821 61.102C113.382 61.102 112.271 60.6317 111.489 59.691C110.707 58.739 110.316 57.3847 110.316 55.628C110.316 53.8373 110.724 52.4603 111.54 51.497C112.367 50.5223 113.54 50.035 115.059 50.035ZM115.008 50.783C113.761 50.783 112.815 51.1853 112.169 51.99C111.523 52.7947 111.2 53.979 111.2 55.543C111.2 57.141 111.512 58.348 112.135 59.164C112.758 59.98 113.676 60.388 114.889 60.388C116.136 60.388 117.082 59.9743 117.728 59.147C118.374 58.3197 118.697 57.107 118.697 55.509C118.697 53.945 118.385 52.7663 117.762 51.973C117.139 51.1797 116.221 50.783 115.008 50.783ZM127.416 50.069C128.957 50.069 130.136 50.511 130.952 51.395C131.779 52.279 132.193 53.5483 132.193 55.203C132.193 57.0957 131.756 58.552 130.884 59.572C130.011 60.5807 128.759 61.085 127.127 61.085C126.707 61.085 126.169 61.0737 125.512 61.051C124.866 61.0397 124.271 61.0227 123.727 61L123.778 57.702L123.727 50.137L127.416 50.069ZM127.246 60.337C128.549 60.337 129.546 59.912 130.238 59.062C130.94 58.212 131.292 56.9767 131.292 55.356C131.292 53.86 130.957 52.7323 130.289 51.973C129.62 51.2023 128.645 50.817 127.365 50.817C127.047 50.817 126.622 50.8283 126.09 50.851C125.557 50.8623 125.07 50.8793 124.628 50.902L124.577 57.651L124.611 60.235C125.075 60.2577 125.551 60.2803 126.039 60.303C126.537 60.3257 126.94 60.337 127.246 60.337Z" fill="#134205"/>
</svg>
