<svg width="36" height="36" viewBox="0 0 36 36" fill="none" xmlns="http://www.w3.org/2000/svg">
<g clip-path="url(#clip0_427_1967)">
<g opacity="0.1" filter="url(#filter0_f_427_1967)">
<path d="M0 18C0 8.05887 8.05887 0 18 0C27.9411 0 36 8.05887 36 18C36 27.9411 27.9411 36 18 36C8.05887 36 0 27.9411 0 18Z" fill="#134205"/>
</g>
<path d="M0 18C0 8.05887 8.05887 0 18 0C27.9411 0 36 8.05887 36 18C36 27.9411 27.9411 36 18 36C8.05887 36 0 27.9411 0 18Z" fill="#134205"/>
<path d="M15.75 18C15.75 18.5967 15.987 19.169 16.409 19.591C16.831 20.0129 17.4033 20.25 18 20.25C18.5967 20.25 19.169 20.0129 19.591 19.591C20.0129 19.169 20.25 18.5967 20.25 18C20.25 17.4033 20.0129 16.831 19.591 16.409C19.169 15.9871 18.5967 15.75 18 15.75C17.4033 15.75 16.831 15.9871 16.409 16.409C15.987 16.831 15.75 17.4033 15.75 18Z" stroke="#FAF7F2" stroke-width="1.5" stroke-linecap="round" stroke-linejoin="round"/>
<path d="M18 10.5C18.5967 10.5 19.169 10.7371 19.591 11.159C20.013 11.581 20.25 12.1533 20.25 12.75C20.25 13.1715 20.056 13.8315 19.668 14.73L19.125 15.75L20.445 14.3302C20.819 13.8807 21.1365 13.5795 21.3975 13.4265C21.6518 13.2791 21.9327 13.1835 22.2241 13.1451C22.5155 13.1068 22.8116 13.1265 23.0954 13.2031C23.3791 13.2797 23.6449 13.4117 23.8774 13.5915C24.1099 13.7714 24.3045 13.9954 24.45 14.2507C24.7469 14.7673 24.8275 15.3802 24.6744 15.9559C24.5212 16.5316 24.1467 17.0235 23.6325 17.3242C23.352 17.4872 22.8905 17.621 22.248 17.7255L20.25 18L22.05 18.2445C22.8 18.3533 23.3235 18.4973 23.6325 18.6765C24.1467 18.9773 24.5212 19.4691 24.6744 20.0449C24.8275 20.6206 24.7469 21.2335 24.45 21.75C24.3044 22.0053 24.1098 22.2293 23.8773 22.409C23.6447 22.5887 23.3789 22.7207 23.0952 22.7972C22.8115 22.8738 22.5154 22.8934 22.224 22.855C21.9326 22.8166 21.6517 22.7209 21.3975 22.5735C21.1365 22.422 20.819 22.1207 20.445 21.6697L19.125 20.25L19.668 21.27C20.0555 22.1695 20.2495 22.8295 20.25 23.25C20.25 23.8467 20.013 24.419 19.591 24.841C19.169 25.2629 18.5967 25.5 18 25.5C17.4033 25.5 16.831 25.2629 16.409 24.841C15.9871 24.419 15.75 23.8467 15.75 23.25C15.75 22.8285 15.944 22.1685 16.332 21.27L16.875 20.25L15.555 21.6697C15.181 22.1197 14.8635 22.421 14.6025 22.5735C14.3483 22.7209 14.0674 22.8166 13.776 22.855C13.4847 22.8934 13.1886 22.8738 12.9048 22.7972C12.6211 22.7207 12.3553 22.5887 12.1228 22.409C11.8902 22.2293 11.6956 22.0053 11.55 21.75C11.2532 21.2335 11.1725 20.6206 11.3257 20.0449C11.4788 19.4691 11.8533 18.9773 12.3675 18.6765C12.648 18.5135 13.1095 18.3795 13.752 18.2745L15.75 18L13.95 17.7563C13.2 17.6475 12.6765 17.5035 12.3675 17.3242C11.8531 17.0235 11.4784 16.5315 11.3253 15.9556C11.1722 15.3797 11.2529 14.7666 11.55 14.25C11.6955 13.9946 11.8901 13.7706 12.1226 13.5908C12.3551 13.411 12.6209 13.279 12.9047 13.2024C13.1884 13.1257 13.4845 13.106 13.7759 13.1444C14.0673 13.1827 14.3482 13.2783 14.6025 13.4258C14.8635 13.5778 15.181 13.879 15.555 14.3295L16.875 15.75C16.125 14.031 15.75 13.031 15.75 12.75C15.75 12.1533 15.9871 11.581 16.409 11.159C16.831 10.7371 17.4033 10.5 18 10.5Z" stroke="#FAF7F2" stroke-width="1.5" stroke-linecap="round" stroke-linejoin="round"/>
</g>
<defs>
<filter id="filter0_f_427_1967" x="-22.5" y="-22.5" width="81" height="81" filterUnits="userSpaceOnUse" color-interpolation-filters="sRGB">
<feFlood flood-opacity="0" result="BackgroundImageFix"/>
<feBlend mode="normal" in="SourceGraphic" in2="BackgroundImageFix" result="shape"/>
<feGaussianBlur stdDeviation="11.25" result="effect1_foregroundBlur_427_1967"/>
</filter>
<clipPath id="clip0_427_1967">
<rect width="36" height="36" fill="white"/>
</clipPath>
</defs>
</svg>
