<svg width="36" height="36" viewBox="0 0 36 36" fill="none" xmlns="http://www.w3.org/2000/svg">
<g clip-path="url(#clip0_427_1982)">
<g opacity="0.1" filter="url(#filter0_f_427_1982)">
<path d="M0 18C0 8.05887 8.05887 0 18 0C27.9411 0 36 8.05887 36 18C36 27.9411 27.9411 36 18 36C8.05887 36 0 27.9411 0 18Z" fill="#134205"/>
</g>
<path d="M0 18C0 8.05887 8.05887 0 18 0C27.9411 0 36 8.05887 36 18C36 27.9411 27.9411 36 18 36C8.05887 36 0 27.9411 0 18Z" fill="#134205"/>
<path d="M13.23 21.75L12.6975 22.2825C12.5578 22.423 12.4794 22.6131 12.4794 22.8113C12.4794 23.0094 12.5578 23.1995 12.6975 23.34C12.838 23.4797 13.0281 23.5581 13.2263 23.5581C13.4244 23.5581 13.6145 23.4797 13.755 23.34L14.2875 22.8075C14.4104 22.664 14.4746 22.4795 14.4673 22.2907C14.46 22.102 14.3817 21.9229 14.2482 21.7893C14.1146 21.6558 13.9355 21.5775 13.7468 21.5702C13.558 21.5629 13.3735 21.6271 13.23 21.75ZM12.75 18C12.75 17.8011 12.671 17.6103 12.5303 17.4697C12.3897 17.329 12.1989 17.25 12 17.25H11.25C11.0511 17.25 10.8603 17.329 10.7197 17.4697C10.579 17.6103 10.5 17.8011 10.5 18C10.5 18.1989 10.579 18.3897 10.7197 18.5303C10.8603 18.671 11.0511 18.75 11.25 18.75H12C12.1989 18.75 12.3897 18.671 12.5303 18.5303C12.671 18.3897 12.75 18.1989 12.75 18ZM18 12.75C18.1989 12.75 18.3897 12.671 18.5303 12.5303C18.671 12.3897 18.75 12.1989 18.75 12V11.25C18.75 11.0511 18.671 10.8603 18.5303 10.7197C18.3897 10.579 18.1989 10.5 18 10.5C17.8011 10.5 17.6103 10.579 17.4697 10.7197C17.329 10.8603 17.25 11.0511 17.25 11.25V12C17.25 12.1989 17.329 12.3897 17.4697 12.5303C17.6103 12.671 17.8011 12.75 18 12.75ZM13.23 14.2875C13.3697 14.4261 13.5582 14.5042 13.755 14.505C13.8537 14.5056 13.9516 14.4867 14.0429 14.4493C14.1343 14.412 14.2174 14.357 14.2875 14.2875C14.4272 14.147 14.5056 13.9569 14.5056 13.7587C14.5056 13.5606 14.4272 13.3705 14.2875 13.23L13.755 12.6975C13.6115 12.5746 13.427 12.5104 13.2382 12.5177C13.0495 12.525 12.8704 12.6033 12.7368 12.7368C12.6033 12.8704 12.525 13.0495 12.5177 13.2382C12.5104 13.427 12.5746 13.6115 12.6975 13.755L13.23 14.2875ZM22.23 14.505C22.4268 14.5042 22.6153 14.4261 22.755 14.2875L23.2875 13.755C23.366 13.6878 23.4298 13.605 23.4748 13.512C23.5198 13.4189 23.5451 13.3176 23.5491 13.2143C23.5531 13.111 23.5357 13.008 23.498 12.9118C23.4603 12.8155 23.4031 12.7281 23.33 12.655C23.2569 12.5819 23.1695 12.5247 23.0732 12.487C22.977 12.4493 22.874 12.4319 22.7707 12.4359C22.6674 12.4399 22.5661 12.4652 22.473 12.5102C22.38 12.5552 22.2972 12.619 22.23 12.6975L21.75 13.23C21.6103 13.3705 21.5319 13.5606 21.5319 13.7587C21.5319 13.9569 21.6103 14.147 21.75 14.2875C21.8822 14.419 22.0587 14.4966 22.245 14.505H22.23ZM24.75 17.25H24C23.8011 17.25 23.6103 17.329 23.4697 17.4697C23.329 17.6103 23.25 17.8011 23.25 18C23.25 18.1989 23.329 18.3897 23.4697 18.5303C23.6103 18.671 23.8011 18.75 24 18.75H24.75C24.9489 18.75 25.1397 18.671 25.2803 18.5303C25.421 18.3897 25.5 18.1989 25.5 18C25.5 17.8011 25.421 17.6103 25.2803 17.4697C25.1397 17.329 24.9489 17.25 24.75 17.25ZM18 23.25C17.8011 23.25 17.6103 23.329 17.4697 23.4697C17.329 23.6103 17.25 23.8011 17.25 24V24.75C17.25 24.9489 17.329 25.1397 17.4697 25.2803C17.6103 25.421 17.8011 25.5 18 25.5C18.1989 25.5 18.3897 25.421 18.5303 25.2803C18.671 25.1397 18.75 24.9489 18.75 24.75V24C18.75 23.8011 18.671 23.6103 18.5303 23.4697C18.3897 23.329 18.1989 23.25 18 23.25ZM22.77 21.75C22.6275 21.6707 22.4631 21.6401 22.3016 21.6627C22.1401 21.6852 21.9904 21.7598 21.8751 21.8751C21.7598 21.9904 21.6852 22.1401 21.6627 22.3016C21.6401 22.4631 21.6707 22.6275 21.75 22.77L22.2825 23.3025C22.423 23.4422 22.6131 23.5206 22.8113 23.5206C23.0094 23.5206 23.1995 23.4422 23.34 23.3025C23.4797 23.162 23.5581 22.9719 23.5581 22.7737C23.5581 22.5756 23.4797 22.3855 23.34 22.245L22.77 21.75ZM18 13.875C17.1842 13.875 16.3866 14.1169 15.7083 14.5702C15.0299 15.0234 14.5012 15.6677 14.189 16.4214C13.8768 17.1752 13.7951 18.0046 13.9543 18.8047C14.1134 19.6049 14.5063 20.3399 15.0832 20.9168C15.6601 21.4937 16.3951 21.8866 17.1953 22.0457C17.9954 22.2049 18.8248 22.1232 19.5786 21.811C20.3323 21.4988 20.9766 20.9701 21.4298 20.2917C21.8831 19.6134 22.125 18.8158 22.125 18C22.123 16.9066 21.6878 15.8585 20.9146 15.0854C20.1415 14.3122 19.0934 13.877 18 13.875ZM18 20.625C17.4808 20.625 16.9733 20.471 16.5416 20.1826C16.1099 19.8942 15.7735 19.4842 15.5748 19.0045C15.3761 18.5249 15.3242 17.9971 15.4254 17.4879C15.5267 16.9787 15.7767 16.511 16.1438 16.1438C16.511 15.7767 16.9787 15.5267 17.4879 15.4254C17.9971 15.3242 18.5249 15.3761 19.0045 15.5748C19.4842 15.7735 19.8942 16.1099 20.1826 16.5416C20.471 16.9733 20.625 17.4808 20.625 18C20.625 18.6962 20.3484 19.3639 19.8562 19.8562C19.3639 20.3484 18.6962 20.625 18 20.625Z" fill="#FAF7F2"/>
</g>
<defs>
<filter id="filter0_f_427_1982" x="-22.5" y="-22.5" width="81" height="81" filterUnits="userSpaceOnUse" color-interpolation-filters="sRGB">
<feFlood flood-opacity="0" result="BackgroundImageFix"/>
<feBlend mode="normal" in="SourceGraphic" in2="BackgroundImageFix" result="shape"/>
<feGaussianBlur stdDeviation="11.25" result="effect1_foregroundBlur_427_1982"/>
</filter>
<clipPath id="clip0_427_1982">
<rect width="36" height="36" fill="white"/>
</clipPath>
</defs>
</svg>
