<svg width="48" height="48" viewBox="0 0 48 48" fill="none" xmlns="http://www.w3.org/2000/svg">
<path d="M0 24C0 10.7452 10.7452 0 24 0C37.2548 0 48 10.7452 48 24C48 37.2548 37.2548 48 24 48C10.7452 48 0 37.2548 0 24Z" fill="#134205"/>
<path d="M24.0001 31.7C24.2918 31.7 24.5716 31.8159 24.7779 32.0222C24.9842 32.2285 25.1001 32.5083 25.1001 32.8V33.9C25.1001 34.1917 24.9842 34.4715 24.7779 34.6778C24.5716 34.8841 24.2918 35 24.0001 35C23.7083 35 23.4285 34.8841 23.2222 34.6778C23.016 34.4715 22.9001 34.1917 22.9001 33.9V32.8C22.9001 32.5083 23.016 32.2285 23.2222 32.0222C23.4285 31.8159 23.7083 31.7 24.0001 31.7ZM31.0005 29.445L31.7782 30.2227C31.9785 30.4302 32.0894 30.708 32.0869 30.9964C32.0844 31.2849 31.9687 31.5608 31.7648 31.7647C31.5608 31.9687 31.2849 32.0843 30.9965 32.0868C30.7081 32.0893 30.4302 31.9785 30.2228 31.7781L29.4451 31.0004C29.2447 30.7929 29.1338 30.5151 29.1363 30.2267C29.1388 29.9382 29.2545 29.6623 29.4585 29.4584C29.6624 29.2545 29.9383 29.1388 30.2267 29.1363C30.5151 29.1338 30.793 29.2446 31.0005 29.445ZM16.9997 29.445C17.1976 29.2477 17.4632 29.1332 17.7426 29.1246C18.0219 29.1161 18.294 29.2142 18.5037 29.3991C18.7133 29.5839 18.8447 29.8416 18.8712 30.1198C18.8977 30.398 18.8173 30.6759 18.6464 30.897L18.5551 31.0004L17.7774 31.7781C17.5794 31.9754 17.3138 32.0899 17.0344 32.0985C16.7551 32.107 16.483 32.0089 16.2734 31.824C16.0637 31.6392 15.9323 31.3815 15.9058 31.1033C15.8793 30.8251 15.9597 30.5472 16.1307 30.3261L16.222 30.2227L16.9997 29.445ZM24.0001 17.4C25.7505 17.4 27.4292 18.0954 28.667 19.3331C29.9047 20.5708 30.6001 22.2496 30.6001 24C30.6001 25.7504 29.9047 27.4292 28.667 28.6669C27.4292 29.9046 25.7505 30.6 24.0001 30.6C22.2496 30.6 20.5709 29.9046 19.3332 28.6669C18.0954 27.4292 17.4001 25.7504 17.4001 24C17.4001 22.2496 18.0954 20.5708 19.3332 19.3331C20.5709 18.0954 22.2496 17.4 24.0001 17.4ZM24.0001 19.6C22.8331 19.6 21.714 20.0636 20.8888 20.8887C20.0636 21.7139 19.6001 22.833 19.6001 24C19.6001 25.167 20.0636 26.2861 20.8888 27.1113C21.714 27.9364 22.8331 28.4 24.0001 28.4C25.167 28.4 26.2862 27.9364 27.1113 27.1113C27.9365 26.2861 28.4001 25.167 28.4001 24C28.4001 22.833 27.9365 21.7139 27.1113 20.8887C26.2862 20.0636 25.167 19.6 24.0001 19.6ZM15.2001 22.9C15.4804 22.9003 15.7501 23.0077 15.954 23.2001C16.1578 23.3926 16.2805 23.6556 16.297 23.9355C16.3134 24.2154 16.2223 24.491 16.0424 24.706C15.8624 24.921 15.6072 25.0592 15.3288 25.0923L15.2001 25.1H14.1001C13.8197 25.0997 13.55 24.9923 13.3462 24.7999C13.1423 24.6074 13.0196 24.3444 13.0032 24.0645C12.9867 23.7846 13.0778 23.509 13.2578 23.294C13.4377 23.079 13.693 22.9408 13.9714 22.9077L14.1001 22.9H15.2001ZM33.9001 22.9C34.1918 22.9 34.4716 23.0159 34.6779 23.2222C34.8842 23.4285 35.0001 23.7083 35.0001 24C35.0001 24.2917 34.8842 24.5715 34.6779 24.7778C34.4716 24.9841 34.1918 25.1 33.9001 25.1H32.8001C32.5083 25.1 32.2285 24.9841 32.0222 24.7778C31.816 24.5715 31.7001 24.2917 31.7001 24C31.7001 23.7083 31.816 23.4285 32.0222 23.2222C32.2285 23.0159 32.5083 22.9 32.8001 22.9H33.9001ZM16.222 16.2219C16.4114 16.0325 16.6634 15.9187 16.9307 15.9019C17.198 15.8851 17.4623 15.9664 17.674 16.1306L17.7774 16.2219L18.5551 16.9996C18.7523 17.1976 18.8669 17.4632 18.8754 17.7425C18.8839 18.0219 18.7858 18.294 18.601 18.5036C18.4162 18.7132 18.1585 18.8446 17.8802 18.8711C17.602 18.8976 17.3242 18.8173 17.1031 18.6463L16.9997 18.555L16.222 17.7773C16.0157 17.571 15.8999 17.2913 15.8999 16.9996C15.8999 16.7079 16.0157 16.4282 16.222 16.2219ZM31.7782 16.2219C31.9844 16.4282 32.1002 16.7079 32.1002 16.9996C32.1002 17.2913 31.9844 17.571 31.7782 17.7773L31.0005 18.555C30.899 18.6601 30.7776 18.7439 30.6434 18.8015C30.5092 18.8592 30.3649 18.8895 30.2188 18.8908C30.0727 18.892 29.9279 18.8642 29.7927 18.8089C29.6575 18.7536 29.5347 18.6719 29.4314 18.5686C29.3281 18.4654 29.2465 18.3425 29.1912 18.2073C29.1359 18.0722 29.108 17.9273 29.1093 17.7813C29.1106 17.6352 29.1409 17.4909 29.1986 17.3567C29.2562 17.2225 29.34 17.1011 29.4451 16.9996L30.2228 16.2219C30.429 16.0157 30.7088 15.8998 31.0005 15.8998C31.2921 15.8998 31.5719 16.0157 31.7782 16.2219ZM24.0001 13C24.2918 13 24.5716 13.1159 24.7779 13.3222C24.9842 13.5285 25.1001 13.8083 25.1001 14.1V15.2C25.1001 15.4917 24.9842 15.7715 24.7779 15.9778C24.5716 16.1841 24.2918 16.3 24.0001 16.3C23.7083 16.3 23.4285 16.1841 23.2222 15.9778C23.016 15.7715 22.9001 15.4917 22.9001 15.2V14.1C22.9001 13.8083 23.016 13.5285 23.2222 13.3222C23.4285 13.1159 23.7083 13 24.0001 13Z" fill="white"/>
</svg>
