<svg width="289" height="380" viewBox="0 0 289 380" fill="none" xmlns="http://www.w3.org/2000/svg">
<g clip-path="url(#clip0_525_451)">
<path d="M202.658 243.252C31.0974 243.252 17.2921 97.3068 16.1872 27.9506C16.177 26.064 16.5455 24.1945 17.2706 22.4528C17.9958 20.711 19.0631 19.1325 20.4091 17.8105C21.7552 16.4885 23.3527 15.45 25.1073 14.7564C26.8618 14.0628 28.7376 13.7281 30.6238 13.7723C274.411 18.2497 274.411 136.441 274.411 243.252V300.654" stroke="#134205" stroke-width="28.7011" stroke-linecap="round" stroke-linejoin="round"/>
<path d="M274.411 243.133C274.411 243.133 274.411 157.03 159.606 142.679" stroke="#134205" stroke-width="28.7011" stroke-linecap="round" stroke-linejoin="round"/>
</g>
<path d="M66.8649 291.177V358.141H54.994V328.007H32.2667V358.141H20.3958V291.177H32.2667V320.499H54.994V291.177H66.8649ZM107.158 353.474C105.873 355.841 103.979 357.566 101.476 358.648C99.0408 359.798 96.2675 360.373 93.156 360.373C88.4888 360.373 84.5657 358.953 81.3866 356.112C78.2751 353.271 76.7193 349.585 76.7193 345.053C76.7193 334.095 86.4934 328.616 106.042 328.616V319.789C106.042 316.407 105.534 313.904 104.52 312.281C103.505 310.59 101.577 309.744 98.7364 309.744C96.369 309.744 94.4074 310.387 92.8517 311.672C91.2959 312.889 90.5181 314.614 90.5181 316.846C90.5181 318.267 90.7886 319.789 91.3297 321.412C90.3828 322.156 89.03 322.528 87.2713 322.528C84.8362 322.528 82.9085 321.92 81.488 320.702C80.0676 319.484 79.3573 317.726 79.3573 315.426C79.3573 312.179 81.1836 309.541 84.8362 307.512C88.4888 305.415 93.359 304.367 99.4466 304.367C103.911 304.367 107.428 305.043 109.999 306.396C112.569 307.681 114.395 309.71 115.477 312.484C116.627 315.189 117.202 318.842 117.202 323.441V349.821C117.202 353.136 118.251 355.368 120.348 356.518C119.806 357.532 118.995 358.31 117.913 358.851C116.898 359.392 115.714 359.663 114.361 359.663C112.4 359.663 110.776 359.122 109.491 358.04C108.206 356.89 107.428 355.368 107.158 353.474ZM97.113 353.575C100.089 353.575 102.321 352.459 103.809 350.227C105.298 347.927 106.042 345.086 106.042 341.704V333.689C94.6103 333.689 88.8947 337.342 88.8947 344.647C88.8947 347.352 89.6049 349.517 91.0254 351.14C92.5135 352.764 94.5427 353.575 97.113 353.575ZM166.614 306.396L143.582 377.723L132.421 376.404L142.466 353.271H137.393L124.508 306.396H136.074L145.713 346.473L156.062 306.396H166.614ZM200.791 353.474C199.506 355.841 197.612 357.566 195.109 358.648C192.674 359.798 189.901 360.373 186.79 360.373C182.122 360.373 178.199 358.953 175.02 356.112C171.909 353.271 170.353 349.585 170.353 345.053C170.353 334.095 180.127 328.616 199.675 328.616V319.789C199.675 316.407 199.168 313.904 198.153 312.281C197.139 310.59 195.211 309.744 192.37 309.744C190.002 309.744 188.041 310.387 186.485 311.672C184.929 312.889 184.152 314.614 184.152 316.846C184.152 318.267 184.422 319.789 184.963 321.412C184.016 322.156 182.663 322.528 180.905 322.528C178.47 322.528 176.542 321.92 175.122 320.702C173.701 319.484 172.991 317.726 172.991 315.426C172.991 312.179 174.817 309.541 178.47 307.512C182.122 305.415 186.992 304.367 193.08 304.367C197.544 304.367 201.062 305.043 203.632 306.396C206.202 307.681 208.029 309.71 209.111 312.484C210.261 315.189 210.836 318.842 210.836 323.441V349.821C210.836 353.136 211.884 355.368 213.981 356.518C213.44 357.532 212.628 358.31 211.546 358.851C210.531 359.392 209.348 359.663 207.995 359.663C206.033 359.663 204.41 359.122 203.125 358.04C201.84 356.89 201.062 355.368 200.791 353.474ZM190.747 353.575C193.723 353.575 195.955 352.459 197.443 350.227C198.931 347.927 199.675 345.086 199.675 341.704V333.689C188.244 333.689 182.528 337.342 182.528 344.647C182.528 347.352 183.238 349.517 184.659 351.14C186.147 352.764 188.176 353.575 190.747 353.575ZM217.837 310.962L217.735 307.918C220.779 306.7 223.654 305.077 226.359 303.048C229.133 301.019 231.466 298.786 233.36 296.351H236.505V306.396H245.84V310.962H236.303V347.894C236.303 349.923 236.675 351.445 237.419 352.459C238.163 353.474 239.346 354.116 240.97 354.387C240.632 355.943 239.718 357.194 238.23 358.141C236.81 359.156 235.153 359.663 233.259 359.663C227.78 359.663 225.04 356.552 225.04 350.329V310.962H217.837ZM264.099 347.386C266.331 347.386 268.124 347.927 269.476 349.01C270.829 350.092 271.506 351.648 271.506 353.677C271.506 355.774 270.762 357.363 269.273 358.445C267.853 359.595 266.027 360.17 263.795 360.17C261.562 360.17 259.77 359.629 258.417 358.547C257.064 357.465 256.388 355.909 256.388 353.88C256.388 351.783 257.098 350.193 258.519 349.111C260.007 347.961 261.867 347.386 264.099 347.386Z" fill="#134205"/>
<defs>
<clipPath id="clip0_525_451">
<rect width="288.53" height="313.103" fill="white" transform="matrix(-1 0 0 1 288.53 0)"/>
</clipPath>
</defs>
</svg>
