<svg width="36" height="36" viewBox="0 0 36 36" fill="none" xmlns="http://www.w3.org/2000/svg">
<g clip-path="url(#clip0_427_1962)">
<g opacity="0.1" filter="url(#filter0_f_427_1962)">
<path d="M0 18C0 8.05887 8.05887 0 18 0C27.9411 0 36 8.05887 36 18C36 27.9411 27.9411 36 18 36C8.05887 36 0 27.9411 0 18Z" fill="#134205"/>
</g>
<path d="M0 18C0 8.05887 8.05887 0 18 0C27.9411 0 36 8.05887 36 18C36 27.9411 27.9411 36 18 36C8.05887 36 0 27.9411 0 18Z" fill="#134205"/>
<path d="M19.0687 10.6628C19.2141 10.5476 19.397 10.4905 19.5821 10.5022C19.7672 10.514 19.9413 10.594 20.0709 10.7267C20.2005 10.8593 20.2763 11.0353 20.2838 11.2206C20.2912 11.4059 20.2298 11.5874 20.1112 11.73L20.0595 11.7863L18.75 13.065V16.7145L22.0117 14.874L22.4917 13.1265L22.5157 13.0538C22.5849 12.8741 22.7206 12.7279 22.8947 12.6454C23.0687 12.563 23.2678 12.5507 23.4507 12.6111C23.6336 12.6714 23.7862 12.7998 23.877 12.9696C23.9678 13.1394 23.9898 13.3377 23.9385 13.5233L23.577 14.8403L24.9397 15.198L25.0132 15.2205C25.1883 15.2848 25.3332 15.4119 25.4196 15.5772C25.506 15.7425 25.5277 15.9341 25.4805 16.1145C25.4333 16.2949 25.3205 16.4513 25.1642 16.5531C25.008 16.6549 24.8194 16.6948 24.6352 16.665L24.5602 16.6485L22.7565 16.176L19.5262 18L22.7565 19.8225L24.5602 19.35L24.6352 19.335C24.8246 19.3069 25.0176 19.3523 25.1746 19.4619C25.3316 19.5714 25.4408 19.7369 25.4797 19.9244C25.5187 20.1119 25.4844 20.3071 25.384 20.4702C25.2836 20.6332 25.1247 20.7517 24.9397 20.8013L23.577 21.1583L23.9385 22.476L23.9542 22.551C23.9841 22.7338 23.9453 22.9212 23.8452 23.077C23.7452 23.2329 23.591 23.3462 23.4124 23.3952C23.2338 23.4442 23.0434 23.4254 22.8778 23.3423C22.7123 23.2593 22.5833 23.118 22.5157 22.9455L22.4917 22.872L22.0117 21.1245L18.75 19.284V22.9335L20.0595 24.2138L20.112 24.27C20.2312 24.4127 20.2933 24.5945 20.286 24.7802C20.2788 24.966 20.2029 25.1424 20.0729 25.2754C19.943 25.4083 19.7683 25.4882 19.5828 25.4997C19.3972 25.5111 19.214 25.4533 19.0687 25.3373L19.011 25.2863L18 24.2985L16.989 25.2863C16.8462 25.4223 16.6555 25.4965 16.4584 25.493C16.2612 25.4895 16.0734 25.4084 15.9355 25.2674C15.7977 25.1264 15.7209 24.9368 15.7218 24.7396C15.7228 24.5424 15.8013 24.3535 15.9405 24.2138L17.25 22.9335V19.284L13.9875 21.1245L13.5075 22.872L13.485 22.9455C13.4173 23.1273 13.2818 23.2759 13.1069 23.3599C12.9321 23.4439 12.7314 23.4569 12.5472 23.3961C12.363 23.3353 12.2094 23.2056 12.1189 23.034C12.0283 22.8624 12.0077 22.6624 12.0615 22.476L12.423 21.1583L11.0602 20.8013L10.9867 20.7788C10.8116 20.7145 10.6668 20.5874 10.5804 20.4221C10.494 20.2568 10.4723 20.0652 10.5195 19.8848C10.5667 19.7044 10.6795 19.548 10.8357 19.4462C10.992 19.3444 11.1806 19.3045 11.3647 19.3343L11.4397 19.3508L13.2427 19.8225L16.473 18L13.2427 16.1775L11.4397 16.65L11.3647 16.665C11.1753 16.6932 10.9824 16.6478 10.8254 16.5382C10.6683 16.4286 10.5592 16.2631 10.5202 16.0757C10.4813 15.8882 10.5156 15.6929 10.616 15.5299C10.7164 15.3669 10.8753 15.2484 11.0602 15.1988L12.423 14.841L12.0615 13.524L12.0457 13.449C12.015 13.2658 12.0533 13.0777 12.1533 12.9211C12.2533 12.7645 12.4079 12.6506 12.5871 12.6015C12.7663 12.5524 12.9574 12.5715 13.1232 12.6552C13.2891 12.7389 13.418 12.8812 13.485 13.0545L13.5075 13.128L13.9875 14.8748L17.25 16.7153V13.0658L15.9405 11.7863L15.888 11.73C15.7687 11.5874 15.7067 11.4056 15.7139 11.2198C15.7212 11.0341 15.7971 10.8576 15.927 10.7247C16.057 10.5918 16.2317 10.5118 16.4172 10.5004C16.6028 10.4889 16.7859 10.5468 16.9312 10.6628L16.989 10.7138L18 11.7015L19.011 10.7138L19.0687 10.6628Z" fill="#FAF7F2"/>
</g>
<defs>
<filter id="filter0_f_427_1962" x="-22.5" y="-22.5" width="81" height="81" filterUnits="userSpaceOnUse" color-interpolation-filters="sRGB">
<feFlood flood-opacity="0" result="BackgroundImageFix"/>
<feBlend mode="normal" in="SourceGraphic" in2="BackgroundImageFix" result="shape"/>
<feGaussianBlur stdDeviation="11.25" result="effect1_foregroundBlur_427_1962"/>
</filter>
<clipPath id="clip0_427_1962">
<rect width="36" height="36" fill="white"/>
</clipPath>
</defs>
</svg>
